<svg width="361" height="312" viewBox="0 0 361 312" fill="none" xmlns="http://www.w3.org/2000/svg">
<g filter="url(#filter0_d)">
<ellipse cx="180" cy="149" rx="127" ry="115" fill="#F71616"/>
<path d="M306.5 149C306.5 212.191 249.912 263.5 180 263.5C110.088 263.5 53.5 212.191 53.5 149C53.5 85.8089 110.088 34.5 180 34.5C249.912 34.5 306.5 85.8089 306.5 149Z" stroke="black"/>
</g>
<g filter="url(#filter1_d)">
<path d="M139.339 175V166.694L150.084 164.849V89.2407L139.339 87.395V79.0234H173.814V87.395L163.07 89.2407V164.849L173.814 166.694V175H139.339ZM184.559 175V166.694L195.304 164.849V89.2407L184.559 87.395V79.0234H219.034V87.395L208.29 89.2407V164.849L219.034 166.694V175H184.559Z" fill="#FFFEFE"/>
</g>
<g filter="url(#filter2_d)">
<path d="M112.025 223V221.154L113.607 220.935L121.063 201.672H123.539L130.863 220.935L132.431 221.154V223H126.308V221.154L127.919 220.876L126.513 216.95H117.973L116.522 220.876L118.134 221.154V223H112.025ZM118.866 214.533H125.634L122.499 205.861L122.323 205.378H122.235L122.06 205.861L118.866 214.533ZM134.555 223V221.154L136.942 220.744V209.421L134.555 209.011V207.15H139.521L139.726 209.509C140.253 208.669 140.912 208.02 141.703 207.561C142.504 207.092 143.412 206.857 144.428 206.857C146.137 206.857 147.46 207.36 148.397 208.366C149.335 209.362 149.804 210.905 149.804 212.995V220.744L152.191 221.154V223H144.53V221.154L146.918 220.744V213.054C146.918 211.657 146.64 210.666 146.083 210.08C145.536 209.494 144.696 209.201 143.563 209.201C142.733 209.201 141.996 209.401 141.352 209.802C140.717 210.202 140.209 210.749 139.828 211.442V220.744L142.216 221.154V223H134.555ZM160.321 223.308C159.032 223.308 157.924 222.99 156.996 222.355C156.078 221.711 155.375 220.817 154.887 219.675C154.398 218.532 154.154 217.199 154.154 215.676V215.368C154.154 213.669 154.398 212.18 154.887 210.9C155.375 209.621 156.083 208.63 157.011 207.927C157.938 207.214 159.052 206.857 160.351 206.857C161.288 206.857 162.113 207.033 162.826 207.385C163.549 207.727 164.164 208.225 164.672 208.879V202.419L162.284 202.009V200.148H167.558V220.744L169.945 221.154V223H165.053L164.818 221.11C163.764 222.575 162.265 223.308 160.321 223.308ZM161.054 220.964C161.913 220.964 162.636 220.769 163.222 220.378C163.808 219.987 164.291 219.436 164.672 218.723V211.369C164.301 210.705 163.817 210.178 163.222 209.787C162.626 209.396 161.913 209.201 161.083 209.201C159.706 209.201 158.686 209.772 158.021 210.915C157.367 212.058 157.04 213.542 157.04 215.368V215.676C157.04 217.268 157.367 218.547 158.021 219.514C158.676 220.48 159.687 220.964 161.054 220.964ZM179.071 223.308C177.606 223.308 176.332 222.976 175.248 222.312C174.164 221.638 173.324 220.705 172.729 219.514C172.143 218.322 171.85 216.945 171.85 215.383V214.738C171.85 213.234 172.157 211.892 172.772 210.71C173.397 209.519 174.223 208.581 175.248 207.897C176.283 207.204 177.411 206.857 178.632 206.857C180.761 206.857 182.372 207.502 183.466 208.791C184.569 210.08 185.121 211.799 185.121 213.947V215.749H174.838L174.794 215.822C174.823 217.346 175.209 218.601 175.951 219.587C176.693 220.563 177.733 221.052 179.071 221.052C180.048 221.052 180.902 220.915 181.635 220.642C182.377 220.358 183.017 219.973 183.554 219.484L184.682 221.359C184.115 221.906 183.363 222.37 182.426 222.751C181.498 223.122 180.38 223.308 179.071 223.308ZM174.926 213.493H182.235V213.112C182.235 211.979 181.933 211.032 181.327 210.271C180.722 209.509 179.823 209.128 178.632 209.128C177.665 209.128 176.84 209.538 176.156 210.358C175.473 211.169 175.053 212.189 174.896 213.42L174.926 213.493ZM187.348 223V221.154L189.735 220.744V209.421L187.348 209.011V207.15H192.313L192.562 209.172L192.592 209.45C193.041 208.64 193.593 208.005 194.247 207.546C194.911 207.087 195.668 206.857 196.518 206.857C196.82 206.857 197.128 206.887 197.44 206.945C197.763 206.994 197.992 207.043 198.129 207.092L197.748 209.772L195.741 209.655C194.979 209.606 194.34 209.782 193.822 210.183C193.305 210.573 192.904 211.101 192.621 211.765V220.744L195.009 221.154V223H187.348ZM206.303 223.308C205.238 223.308 204.242 223.2 203.314 222.985C202.387 222.771 201.4 222.438 200.355 221.989L200.326 218.225H202.509L203.051 220.495C204.086 220.925 205.17 221.14 206.303 221.14C207.475 221.14 208.314 220.915 208.822 220.466C209.33 220.017 209.584 219.46 209.584 218.796C209.584 218.171 209.325 217.644 208.808 217.214C208.3 216.774 207.372 216.403 206.024 216.101C204.11 215.661 202.699 215.075 201.791 214.343C200.893 213.601 200.443 212.614 200.443 211.384C200.443 210.524 200.692 209.758 201.19 209.084C201.688 208.4 202.382 207.858 203.271 207.458C204.159 207.058 205.194 206.857 206.376 206.857C207.577 206.857 208.603 206.994 209.452 207.268C210.312 207.541 211.059 207.907 211.693 208.366L211.84 211.984H209.672L209.203 209.875C208.861 209.621 208.456 209.426 207.987 209.289C207.519 209.152 206.981 209.084 206.376 209.084C205.478 209.084 204.745 209.294 204.179 209.714C203.622 210.134 203.344 210.661 203.344 211.296C203.344 211.667 203.422 211.989 203.578 212.263C203.744 212.536 204.057 212.785 204.516 213.01C204.975 213.225 205.648 213.439 206.537 213.654C208.744 214.172 210.282 214.831 211.151 215.632C212.03 216.433 212.47 217.419 212.47 218.591C212.47 219.929 211.972 221.052 210.976 221.96C209.989 222.858 208.432 223.308 206.303 223.308ZM222.021 223.308C220.556 223.308 219.291 222.966 218.227 222.282C217.172 221.589 216.356 220.637 215.78 219.426C215.204 218.205 214.916 216.813 214.916 215.251V214.929C214.916 213.366 215.204 211.979 215.78 210.769C216.356 209.548 217.172 208.591 218.227 207.897C219.291 207.204 220.546 206.857 221.991 206.857C223.456 206.857 224.716 207.204 225.771 207.897C226.835 208.591 227.655 209.543 228.231 210.754C228.808 211.965 229.096 213.356 229.096 214.929V215.251C229.096 216.823 228.808 218.22 228.231 219.44C227.655 220.651 226.84 221.599 225.785 222.282C224.73 222.966 223.476 223.308 222.021 223.308ZM222.021 221.052C223.388 221.052 224.428 220.505 225.141 219.411C225.854 218.317 226.21 216.931 226.21 215.251V214.929C226.21 213.815 226.049 212.824 225.727 211.955C225.414 211.076 224.945 210.388 224.32 209.89C223.695 209.382 222.919 209.128 221.991 209.128C221.073 209.128 220.302 209.382 219.677 209.89C219.052 210.388 218.583 211.076 218.271 211.955C217.958 212.824 217.802 213.815 217.802 214.929V215.251C217.802 216.931 218.153 218.317 218.856 219.411C219.569 220.505 220.624 221.052 222.021 221.052ZM231.322 223V221.154L233.71 220.744V209.421L231.322 209.011V207.15H236.288L236.493 209.509C237.021 208.669 237.68 208.02 238.471 207.561C239.271 207.092 240.18 206.857 241.195 206.857C242.904 206.857 244.228 207.36 245.165 208.366C246.103 209.362 246.571 210.905 246.571 212.995V220.744L248.959 221.154V223H241.298V221.154L243.686 220.744V213.054C243.686 211.657 243.407 210.666 242.851 210.08C242.304 209.494 241.464 209.201 240.331 209.201C239.501 209.201 238.764 209.401 238.119 209.802C237.484 210.202 236.977 210.749 236.596 211.442V220.744L238.983 221.154V223H231.322Z" fill="#FFF3F3"/>
</g>
<defs>
<filter id="filter0_d" x="49" y="34" width="262" height="238" filterUnits="userSpaceOnUse" color-interpolation-filters="sRGB">
<feFlood flood-opacity="0" result="BackgroundImageFix"/>
<feColorMatrix in="SourceAlpha" type="matrix" values="0 0 0 0 0 0 0 0 0 0 0 0 0 0 0 0 0 0 127 0"/>
<feOffset dy="4"/>
<feGaussianBlur stdDeviation="2"/>
<feColorMatrix type="matrix" values="0 0 0 0 0 0 0 0 0 0 0 0 0 0 0 0 0 0 0.25 0"/>
<feBlend mode="normal" in2="BackgroundImageFix" result="effect1_dropShadow"/>
<feBlend mode="normal" in="SourceGraphic" in2="effect1_dropShadow" result="shape"/>
</filter>
<filter id="filter1_d" x="135.339" y="79.0234" width="87.6948" height="103.977" filterUnits="userSpaceOnUse" color-interpolation-filters="sRGB">
<feFlood flood-opacity="0" result="BackgroundImageFix"/>
<feColorMatrix in="SourceAlpha" type="matrix" values="0 0 0 0 0 0 0 0 0 0 0 0 0 0 0 0 0 0 127 0"/>
<feOffset dy="4"/>
<feGaussianBlur stdDeviation="2"/>
<feColorMatrix type="matrix" values="0 0 0 0 0 0 0 0 0 0 0 0 0 0 0 0 0 0 0.25 0"/>
<feBlend mode="normal" in2="BackgroundImageFix" result="effect1_dropShadow"/>
<feBlend mode="normal" in="SourceGraphic" in2="effect1_dropShadow" result="shape"/>
</filter>
<filter id="filter2_d" x="108.025" y="200.148" width="144.934" height="31.1592" filterUnits="userSpaceOnUse" color-interpolation-filters="sRGB">
<feFlood flood-opacity="0" result="BackgroundImageFix"/>
<feColorMatrix in="SourceAlpha" type="matrix" values="0 0 0 0 0 0 0 0 0 0 0 0 0 0 0 0 0 0 127 0"/>
<feOffset dy="4"/>
<feGaussianBlur stdDeviation="2"/>
<feColorMatrix type="matrix" values="0 0 0 0 0 0 0 0 0 0 0 0 0 0 0 0 0 0 0.25 0"/>
<feBlend mode="normal" in2="BackgroundImageFix" result="effect1_dropShadow"/>
<feBlend mode="normal" in="SourceGraphic" in2="effect1_dropShadow" result="shape"/>
</filter>
</defs>
</svg>
